<?xml version="1.0" encoding="UTF-8" standalone="no"?>
<svg
   xmlns:dc="http://purl.org/dc/elements/1.1/"
   xmlns:cc="http://creativecommons.org/ns#"
   xmlns:rdf="http://www.w3.org/1999/02/22-rdf-syntax-ns#"
   xmlns:svg="http://www.w3.org/2000/svg"
   xmlns="http://www.w3.org/2000/svg"
   xmlns:sodipodi="http://sodipodi.sourceforge.net/DTD/sodipodi-0.dtd"
   xmlns:inkscape="http://www.inkscape.org/namespaces/inkscape"
   enable-background="new 0 0 226.777 226.777"
   height="226.777px"
   id="Layer_1"
   version="1.1"
   viewBox="0 0 226.777 226.777"
   width="226.777px"
   xml:space="preserve"
   sodipodi:docname="arch.svg"
   inkscape:version="0.92.1 r"><metadata
     id="metadata3734"><rdf:RDF><cc:Work
         rdf:about=""><dc:format>image/svg+xml</dc:format><dc:type
           rdf:resource="http://purl.org/dc/dcmitype/StillImage" /></cc:Work></rdf:RDF></metadata><defs
     id="defs3732" /><sodipodi:namedview
     pagecolor="#ffffff"
     bordercolor="#666666"
     borderopacity="1"
     objecttolerance="10"
     gridtolerance="10"
     guidetolerance="10"
     inkscape:pageopacity="0"
     inkscape:pageshadow="2"
     inkscape:window-width="1920"
     inkscape:window-height="1047"
     id="namedview3730"
     showgrid="false"
     inkscape:zoom="1.8762926"
     inkscape:cx="-95.223333"
     inkscape:cy="112.95898"
     inkscape:window-x="0"
     inkscape:window-y="0"
     inkscape:window-maximized="1"
     inkscape:current-layer="Layer_1" /><g
     id="g95"
     transform="matrix(0.85,0,0,0.85,17.02121,17.012054)"><polygon
       id="polygon3727"
       points="0,211.704 117.539,211.704 113.127,202.671 16.492,202.671 74.474,102.253 134.344,211.704 226.988,211.704 117.539,15.073 "
       style="fill:#231f20" /><path
       inkscape:connector-curvature="0"
       id="path3736"
       d="M 1.0572597,210.2098 C 7.662098,198.85454 117.51395,15.469357 117.63467,15.597051 c 0.22413,0.237062 108.95578,195.617819 108.95578,195.783489 0,0.0707 -20.76241,0.0982 -46.13869,0.0611 l -46.13869,-0.0674 -29.81009,-54.49577 C 88.107435,126.90584 74.60347,102.3555 74.494172,102.3222 74.384874,102.2889 61.267719,124.83336 45.344939,152.421 l -28.950508,50.15934 48.317967,0.13324 48.317962,0.13324 2.14535,4.33035 2.14536,4.33035 H 58.811751 0.30243523 Z"
       style="fill:#ececec;stroke-width:0.26648295" /><path
       inkscape:connector-curvature="0"
       id="path3738"
       d="M -0.00905786,211.4409 C 0.10585598,211.25769 26.542099,167.04238 58.738148,113.18465 90.934198,59.326916 117.37896,15.22898 117.50429,15.189235 c 0.16255,-0.05155 96.47486,172.591425 108.50224,194.493815 l 1.14822,2.09095 h -46.46099 -46.461 L 104.42593,157.27824 C 88.032172,127.30557 74.546277,102.78449 74.457272,102.78695 c -0.089,0.002 -13.086085,22.39703 -28.882406,49.76569 l -28.720582,49.76122 48.173837,0.13324 48.173839,0.13324 2.17698,4.39697 c 1.19733,2.41833 2.18665,4.48691 2.19848,4.59683 0.0118,0.10992 -26.4873,0.19986 -58.886953,0.19986 -47.060544,0 -58.86643739,-0.067 -58.69952486,-0.3331 z"
       style="fill:#ececec;stroke-width:0.26648295" /><path
       inkscape:connector-curvature="0"
       id="path3740"
       d="M -0.09859134,211.57414 C 20.836236,176.53181 32.391965,157.26236 32.537632,157.15245 c 0.102562,-0.0774 0.207484,-0.26061 0.233165,-0.40718 0.08073,-0.46075 84.491603,-141.479289 84.732373,-141.555642 0.12595,-0.03994 9.42265,16.444323 20.65933,36.631694 11.23669,20.187374 26.50994,47.616792 33.94056,60.954268 34.20851,61.402 53.88629,96.77889 54.60977,98.17795 l 0.42428,0.82046 H 180.66887 134.20063 L 120.39412,186.52474 C 81.041663,114.55723 74.706857,103.04896 74.444294,103.04896 c -0.207708,0 -1.310475,1.88376 -17.004136,29.04664 -6.816735,11.79853 -13.065318,22.59109 -13.885742,23.98347 -0.820424,1.39237 -1.633985,2.79539 -1.807913,3.11782 -0.173931,0.32242 -5.782705,10.05662 -12.463944,21.63153 -6.681237,11.57492 -12.147705,21.17432 -12.147705,21.33199 0,0.20354 13.93943,0.28669 48.058375,0.28669 H 113.2516 l 2.10704,4.42538 c 1.15888,2.43395 2.14702,4.5325 2.19587,4.66345 0.052,0.13933 -24.353683,0.23807 -58.841835,0.23807 -32.411868,0 -58.87693677,-0.0899 -58.81126634,-0.19986 z"
       style="fill:#ececec;stroke-width:0.26648295" /><path
       inkscape:connector-curvature="0"
       id="path3742"
       d="m 0.07930431,211.24223 c 0.15652676,-0.29247 5.89843999,-9.91584 12.75980669,-21.38525 6.861367,-11.46942 14.00717,-23.43171 15.879565,-26.58287 1.872392,-3.15117 3.539594,-5.84974 3.704891,-5.99684 0.165297,-0.14709 0.320763,-0.38693 0.345482,-0.53296 0.07006,-0.41388 9.232664,-15.71043 9.470383,-15.81036 0.116216,-0.0489 0.211302,-0.20602 0.211302,-0.34925 0,-0.23777 9.718503,-16.56258 34.640631,-58.188171 5.089614,-8.500806 16.213798,-27.083934 24.720405,-41.29584 8.50662,-14.211906 15.56868,-25.871777 15.69349,-25.910823 0.24482,-0.0766 17.07426,29.973436 16.92595,30.222387 -0.0492,0.08252 0.0312,0.224573 0.17861,0.315665 0.14739,0.09109 4.60903,7.959086 9.91475,17.484426 5.30572,9.525342 10.70517,19.207502 11.99878,21.515911 1.29361,2.308408 2.26848,4.198942 2.16637,4.201186 -0.10211,0.0021 -0.0551,0.09218 0.1044,0.199862 0.28999,0.195735 12.19643,21.407777 12.54451,22.348807 0.10132,0.27392 0.26092,0.55799 0.35468,0.63127 0.0937,0.0733 1.16966,1.932 2.39092,4.13048 1.22125,2.19849 6.5978,11.85183 11.9479,21.45188 18.3442,32.9163 41.09129,73.86666 41.09129,73.97445 0,0.0593 -20.9135,0.10781 -46.47444,0.10781 h -46.47444 l -1.90867,-3.5309 c -1.04977,-1.94199 -2.01297,-3.71077 -2.14045,-3.93062 -0.12749,-0.21985 -6.07484,-11.07237 -13.21634,-24.11671 -36.740655,-67.10878 -42.028018,-76.68513 -42.410293,-76.81255 -0.141489,-0.0472 -1.099026,1.32732 -2.127858,3.05441 -3.137285,5.26653 -43.267119,74.69913 -51.947983,89.88036 l -3.276151,5.72938 7.25569,0.16421 c 3.990629,0.0903 25.612989,0.18025 48.049686,0.19986 l 40.793999,0.0357 2.17638,4.48643 c 1.19701,2.46754 2.17638,4.56609 2.17638,4.66345 0,0.0974 -26.505951,0.17702 -58.90211,0.17702 -58.77533942,0 -58.9014973,-0.001 -58.61751569,-0.53177 z"
       style="fill:#ececec;stroke-width:0.26648295" /><path
       inkscape:connector-curvature="0"
       id="path3744"
       d="m 0.10592215,211.17442 c 0.34766014,-0.66981 2.30507225,-3.94986 25.56361385,-42.83714 8.985266,-15.02298 16.436825,-27.35447 16.559024,-27.40333 0.122195,-0.0489 0.222174,-0.21208 0.222174,-0.36272 0,-0.15063 0.583465,-1.24988 1.296589,-2.44275 0.713125,-1.19289 6.84612,-11.46247 13.628882,-22.82131 C 89.310277,61.828381 117.36315,15.109583 117.54108,15.109583 c 0.23654,0 3.96018,6.67083 3.83247,6.865778 -0.0492,0.07504 0.0292,0.209799 0.17419,0.299469 0.29364,0.181639 12.79663,22.474557 12.90456,23.00893 0.0376,0.185968 0.1531,0.401987 0.25676,0.480048 0.20202,0.152129 2.8001,4.772576 15.72868,27.972025 4.53312,8.134392 8.26247,14.909721 8.28743,15.056287 0.025,0.146565 0.11956,0.326441 0.21022,0.399724 0.0907,0.07328 2.47563,4.27039 5.2999,9.326904 2.82427,5.056512 6.54278,11.711922 8.26335,14.789802 15.49051,27.71055 54.62478,98.15925 54.62478,98.33438 0,0.0729 -20.93882,0.10225 -46.53071,0.0652 l -46.5307,-0.0674 -11.44295,-20.91891 c -6.29363,-11.5054 -12.5618,-22.95751 -13.92926,-25.44912 -6.43206,-11.71962 -8.915366,-16.24894 -16.802148,-30.64554 -15.209218,-27.76305 -17.054557,-31.04527 -17.454369,-31.04527 -0.359113,0 -1.626487,2.13312 -15.516207,26.11533 -25.704829,44.38236 -41.515739,71.87613 -41.515739,72.19218 0,0.26346 36.921431,0.55767 69.98553,0.55767 h 25.927743 l 1.99318,4.13748 c 1.09625,2.27562 2.0683,4.37417 2.16012,4.66345 0.16585,0.52256 -0.21553,0.52597 -58.753135,0.52597 H -0.20528981 Z"
       style="fill:#ececec;stroke-width:0.26648295" /><path
       inkscape:connector-curvature="0"
       id="path3746"
       d="m -0.17564807,211.50307 c 0,-0.24589 42.09787407,-70.55089 42.36578507,-70.75243 0.09742,-0.0733 0.256332,-0.34775 0.353146,-0.60992 0.227683,-0.61656 12.726434,-21.57753 42.777749,-71.740205 24.766668,-41.341361 32.062838,-53.429832 32.248328,-53.429832 0.21671,0 4.54785,7.735423 4.53412,8.097937 -0.005,0.130179 0.10269,0.310055 0.23917,0.399724 0.23596,0.155024 4.39293,7.487461 10.51675,18.550359 1.54148,2.784747 5.25672,9.440159 8.25609,14.789804 2.99936,5.349645 8.24754,14.763156 11.66261,20.918912 3.41507,6.155756 7.25675,13.051002 8.53706,15.32277 8.34983,14.815801 65.48782,117.572881 65.73616,118.220051 0.11901,0.31012 -7.00877,0.35602 -46.4323,0.29899 l -46.57288,-0.0674 -4.16816,-7.59476 c -2.29249,-4.17712 -8.16892,-14.90972 -13.05874,-23.85023 -33.782236,-61.76716 -41.997034,-76.61808 -42.377721,-76.61151 -0.22108,0.004 -1.873594,2.68937 -5.737714,9.32457 -2.005841,3.44429 -3.764575,6.33571 -3.9083,6.42538 -0.143725,0.0897 -0.237213,0.24758 -0.207753,0.3509 0.02946,0.10333 -3.460073,6.26566 -7.754518,13.69408 -26.364654,45.60488 -39.441498,68.34659 -39.343582,68.42173 0.328028,0.2517 13.950488,0.39781 51.45568,0.55185 l 44.471308,0.18267 2.09659,4.38236 c 1.15312,2.4103 2.09659,4.48898 2.09659,4.61928 0,0.13753 -24.707649,0.23692 -58.892736,0.23692 -32.391002,0 -58.89273207,-0.0594 -58.89273207,-0.13203 z"
       style="fill:#ececec;stroke-width:0.26648295" /><path
       inkscape:connector-curvature="0"
       id="path3748"
       d="m 113.15434,211.67909 c 0.43969,-0.007 1.53741,-0.0212 2.43937,-0.0314 0.90196,-0.0103 1.69664,-0.0231 1.76595,-0.0284 0.12394,-0.01 0.12634,-0.009 0.14598,0.0341 l 0.02,0.0438 -2.58536,-0.003 c -1.97311,-0.002 -2.39604,-0.006 -1.78591,-0.0154 z"
       style="fill:#ececec;stroke-width:0.01665518" /><path
       inkscape:connector-curvature="0"
       id="path3750"
       d="m 91.844028,207.09885 v -4.67029 l 10.671812,0.004 c 5.86949,0.002 10.70259,0.008 10.74022,0.0131 0.0514,0.007 0.0731,0.0197 0.0871,0.0505 0.0103,0.0225 0.0287,0.041 0.0409,0.041 0.0191,0 0.6932,1.39469 2.16531,4.48025 0.67573,1.41633 1.27189,2.69951 1.65979,3.57254 0.38734,0.87175 0.43082,0.99863 0.34635,1.01065 -0.0377,0.005 -0.0436,0.0292 -0.0209,0.0844 0.0114,0.0277 -0.19881,0.0292 -4.27437,0.0297 -2.35748,2.8e-4 -5.49674,0.007 -6.97614,0.0158 -1.47939,0.008 -5.33361,0.0206 -8.564925,0.0272 l -5.875117,0.0119 z"
       style="fill:#ececec;stroke-width:0.01665518" /><path
       inkscape:connector-curvature="0"
       id="path3752"
       d="m 91.844028,207.09584 v -4.67347 l 10.688462,0.008 c 5.87866,0.004 10.71168,0.0116 10.74005,0.0159 0.0343,0.005 0.0579,0.0216 0.0704,0.0491 0.0104,0.0228 0.0288,0.0414 0.041,0.0414 0.0219,0 0.36763,0.71184 1.70687,3.51425 1.18813,2.48621 1.82706,3.85847 2.26437,4.86331 0.24278,0.55784 0.27527,0.66872 0.20271,0.69175 -0.0284,0.009 -0.0332,0.0203 -0.0254,0.0594 l 0.01,0.0483 -3.84277,6.3e-4 c -2.11352,3.5e-4 -5.13188,0.008 -6.70746,0.016 -1.57558,0.008 -5.62841,0.0206 -9.006292,0.0271 l -6.1416,0.0118 z"
       style="fill:#ececec;stroke-width:0.01665518" /><path
       inkscape:connector-curvature="0"
       id="path3754"
       d="m 6.3096574,211.75549 c -4.0768676,-0.0219 -6.42890119,-0.0823 -6.42890119,-0.1649 0,-0.13492 0.62613718,-1.21516 3.39837099,-5.86299 11.1096548,-18.62608 22.7465948,-38.069 31.3806138,-52.43053 6.969354,-11.59258 7.608101,-12.66088 9.918447,-16.58856 2.438597,-4.14571 7.836514,-13.19549 20.901784,-35.04251 5.938377,-9.929819 11.55052,-19.325827 12.471429,-20.880015 l 1.674379,-2.825798 36.59832,-0.0056 36.59831,-0.0056 0.39557,0.699517 c 0.21757,0.384735 2.43106,4.356997 4.91887,8.827248 2.48782,4.470252 7.12,12.774528 10.29375,18.453948 11.53519,20.64229 50.61056,90.9113 56.00745,100.71793 1.50856,2.74116 2.71152,5.03458 2.67327,5.09648 -0.0383,0.0619 -20.95429,0.11256 -46.48005,0.11256 -36.96746,0 -46.43798,-0.0339 -46.54565,-0.16655 -0.0743,-0.0916 -2.72704,-4.90328 -5.89489,-10.69263 -3.16785,-5.78934 -6.61514,-12.085 -7.66066,-13.99035 -1.04551,-1.90535 -4.67387,-8.53079 -8.06302,-14.72318 -24.672828,-45.08034 -32.442784,-59.1944 -35.871368,-65.16005 -2.20301,-3.83318 -2.108338,-3.71462 -2.51663,-3.15162 -0.685586,0.94537 -7.670863,12.77005 -12.17581,20.61122 -1.990356,3.46435 -14.464231,25.06438 -19.813609,34.30968 -9.184485,15.87348 -23.745571,41.24377 -24.337609,42.40426 l -0.272704,0.53455 1.760105,0.0889 c 3.630517,0.18338 25.772968,0.34365 59.409538,0.43002 l 34.731897,0.0892 1.13349,2.34325 c 1.66191,3.43568 2.99075,6.3277 3.04112,6.61858 0.043,0.24833 -0.19418,0.25707 -9.21615,0.33957 -8.667752,0.0793 -87.877438,0.0901 -102.0296626,0.014 z"
       style="fill:#ececec;stroke-width:0.13324147" /><path
       inkscape:connector-curvature="0"
       id="path3756"
       d="m 2.1125509,211.757 c -1.52506465,-0.0273 -2.23179469,-0.0869 -2.23179469,-0.18816 0,-0.0815 0.51832942,-1.0244 1.15184309,-2.09533 3.1311635,-5.29313 17.7124027,-29.68385 29.1625337,-48.78153 7.051912,-11.76189 14.636771,-24.44315 16.855242,-28.18058 4.218125,-7.10621 9.658776,-16.22286 23.993957,-40.205589 l 8.581448,-14.356746 36.62594,0.03329 36.62593,0.03329 1.48938,2.66483 c 0.81915,1.465656 4.71789,8.450841 8.66386,15.522632 3.94598,7.071783 7.74417,13.877093 8.44045,15.122903 8.35759,14.95368 50.82849,91.37637 53.56685,96.38885 1.17761,2.1556 2.11017,3.96935 2.07234,4.03056 -0.0378,0.0612 -20.96008,0.11128 -46.49391,0.11128 h -46.42511 l -0.31181,-0.49965 c -0.30153,-0.48319 -3.37195,-6.07144 -12.31731,-22.41788 -35.444466,-64.76997 -44.7676,-81.68456 -46.623207,-84.58658 -0.379652,-0.59375 -0.487075,-0.68418 -0.651057,-0.54809 -0.284322,0.23597 -1.602817,2.39384 -5.328466,8.72068 -6.535504,11.09849 -48.494845,83.85651 -50.960932,88.3669 -0.248766,0.45498 -0.416971,0.86257 -0.373789,0.90575 0.221478,0.22148 39.285329,0.5109 86.297071,0.63937 l 9.50642,0.026 1.1829,2.46496 c 1.71061,3.56462 2.89074,6.15606 2.94288,6.46221 0.0448,0.26299 -0.0506,0.26755 -7.28289,0.34756 -7.21822,0.0799 -103.8144058,0.0969 -108.1587691,0.0191 z"
       style="fill:#ececec;stroke-width:0.13324147" /><path
       inkscape:connector-curvature="0"
       id="path3758"
       d="m 0.71351543,211.75829 c -0.49490638,-0.0283 -0.83275922,-0.10779 -0.83275922,-0.19604 0,-0.0817 0.15865731,-0.42356 0.35257183,-0.75977 1.29180746,-2.23975 15.33260296,-25.73417 33.29154596,-55.70665 5.291118,-8.83057 11.526745,-19.26338 13.856952,-23.18401 3.76855,-6.34068 14.021166,-23.51398 27.622628,-46.268343 l 4.599659,-7.694934 36.652237,0.03355 36.65224,0.03355 4.1622,7.461523 c 4.75455,8.523413 5.20642,9.333347 12.22858,21.918224 8.15137,14.60859 17.15771,30.79103 31.77567,57.09397 22.2685,40.06898 25.8024,46.4616 26.0562,47.13417 0.0837,0.22179 -2.18191,0.23317 -46.41847,0.23317 h -46.50646 l -0.25538,-0.36641 c -0.14047,-0.20153 -1.81675,-3.21445 -3.7251,-6.69538 -4.96575,-9.05785 -10.97016,-20.02105 -23.75325,-43.37011 -26.109189,-47.68996 -31.636208,-57.62693 -32.052535,-57.62693 -0.377188,0 -3.866453,5.90229 -20.007219,33.84333 -21.724762,37.60742 -35.748611,61.99617 -36.535298,63.53821 -0.15052,0.29504 -0.221121,0.56892 -0.156892,0.60861 0.33541,0.2073 55.964125,0.60645 84.729814,0.60796 l 10.96619,5.3e-4 1.06979,2.2318 c 1.65945,3.46194 3.02505,6.46862 3.07123,6.76201 0.0413,0.26215 -0.0522,0.2676 -5.75406,0.33565 -6.46417,0.0771 -109.7784528,0.10716 -111.09008457,0.0323 z"
       style="fill:#ececec;stroke-width:0.13324147" /></g></svg>